<svg xmlns="http://www.w3.org/2000/svg" width="24" height="24" viewBox="0 0 24 24">
  <path fill="currentColor" d="M12 20a6 6 0 0 1-6-6c0-4 6-10.75 6-10.75S18 10 18 14a6 6 0 0 1-6 6"/>
  <!-- Scaled-down mdi:flare -->
  <g transform="translate(15, 0) scale(0.4)">
    <path fill="currentColor" d="M7 11H1v2h6zm2.17-3.24L7.05 5.64L5.64 7.05l2.12 2.12zM13 1h-2v6h2zm5.36 6.05l-1.41-1.41l-2.12 2.12l1.41 1.41zM17 11v2h6v-2zm-5-2a3 3 0 0 0-3 3a3 3 0 0 0 3 3a3 3 0 0 0 3-3a3 3 0 0 0-3-3m2.83 7.24l2.12 2.12l1.41-1.41l-2.12-2.12zm-9.19.71l1.41 1.41l2.12-2.12l-1.41-1.41zM11 23h2v-6h-2z"/>
  </g>
</svg>
